<svg xmlns="http://www.w3.org/2000/svg" viewBox="0 0 64 64" width="64" height="64">
  <rect x="8" y="12" width="48" height="44" rx="4" fill="#3b82f6" stroke="#1e40af" stroke-width="2"/>
  <rect x="8" y="12" width="48" height="12" rx="4" fill="#1e40af"/>
  <circle cx="18" cy="18" r="2" fill="#fff"/>
  <circle cx="26" cy="18" r="2" fill="#fff"/>
  <circle cx="34" cy="18" r="2" fill="#fff"/>
  <line x1="8" y1="24" x2="56" y2="24" stroke="#1e40af" stroke-width="2"/>
  <rect x="14" y="30" width="8" height="6" rx="1" fill="#fff"/>
  <rect x="26" y="30" width="8" height="6" rx="1" fill="#fff"/>
  <rect x="38" y="30" width="8" height="6" rx="1" fill="#fff"/>
  <rect x="14" y="40" width="8" height="6" rx="1" fill="#fff"/>
  <rect x="26" y="40" width="8" height="6" rx="1" fill="#fff"/>
  <rect x="38" y="40" width="8" height="6" rx="1" fill="#60a5fa"/>
  <rect x="14" y="50" width="8" height="4" rx="1" fill="#fff"/>
</svg>
